# AST/ASF file generated using VICON BodyLanguage
# -----------------------------------------------
:version 1.10
:name VICON
:units
  mass 1.0
  length 0.45
  angle deg
:documentation
   .ast/.asf automatically generated from VICON data using
   VICON BodyBuilder and BodyLanguage model FoxedUp or BRILLIANT.MOD
:root
   order TX TY TZ RX RY RZ
   axis XYZ
   position 0 0 0  
   orientation 0 0 0 
:bonedata
  begin
     id 1 
     name lhipjoint
     direction 0.578396 -0.714046 0.394458 
     length 2.21935 
     axis 0 0 0  XYZ
  end
  begin
     id 2 
     name lfemur
     direction 0.34202 -0.939693 0  
     length 6.39105  
     axis 0 0 20  XYZ
    dof rx ry rz
    limits (-160.0 20.0)
           (-70.0 70.0)
           (-60.0 70.0)
  end
  begin
     id 3 
     name ltibia
     direction 0.34202 -0.939693 0   
     length 6.99037   
     axis 0 0 20   XYZ
    dof rx
    limits (-10.0 170.0)
  end
  begin
     id 4 
     name lfoot
     direction 0.0582372 -0.160005 0.985397   
     length 2.06111   
     axis -90 7.62852e-016 20   XYZ
    dof rx rz
    limits (-45.0 90.0)
           (-70.0 20.0)
  end
  begin
     id 5 
     name ltoes
     direction 1.53556e-011 -4.21875e-011 1   
     length 1.04074   
     axis -90 7.62852e-016 20   XYZ
    dof rx
    limits (-90.0 20.0)
  end
  begin
     id 6 
     name rhipjoint
     direction -0.558179 -0.726269 0.40121   
     length 2.182  
     axis 0 0 0  XYZ 
  end
  begin
     id 7 
     name rfemur
     direction -0.34202 -0.939693 0   
     length 6.51172   
     axis 0 0 -20   XYZ
    dof rx ry rz
    limits (-160.0 20.0)
           (-70.0 70.0)
           (-70.0 60.0)
  end
  begin
     id 8 
     name rtibia
     direction -0.34202 -0.939693 0   
     length 7.02607   
     axis 0 0 -20   XYZ
    dof rx
    limits (-10.0 170.0)
 end
 begin
     id 9 
     name rfoot
     direction -0.0788856 -0.216737 0.973038   
     length 1.96734  
     axis -90 -7.62852e-016 -20   XYZ
    dof rx rz
    limits (-45.0 90.0)
           (-20.0 70.0)
  end
  begin
     id 10 
     name rtoes
     direction -1.53567e-011 -4.21783e-011 1   
     length 0.990825   
     axis -90 -7.62852e-016 -20   XYZ
    dof rx
    limits (-90.0 20.0)
  end
  begin
     id 11 
     name lowerback
     direction 0.00668177 0.999323 -0.0361741   
     length 1.7655   
     axis 0 0 0   XYZ
    dof rx ry rz
    limits (-20.0 45.0)
           (-30.0 30.0)
           (-30.0 30.0)
  end
  begin
     id 12 
     name upperback
     direction -0.00222086 0.99851 0.0545167   
     length 1.74912   
     axis 0 0 0   XYZ
    dof rx ry rz
    limits (-20.0 45.0)
           (-30.0 30.0)
           (-30.0 30.0)
  end
  begin
     id 13 
     name thorax
     direction -0.00733971 0.997496 0.0703443   
     length 1.75715   
     axis 0 0 0   XYZ
    dof rx ry rz
    limits (-20.0 45.0)
           (-30.0 30.0)
           (-30.0 30.0)
  end
  begin
     id 14 
     name lowerneck
     direction 0.0279797 0.994795 0.0979765   
     length 1.46939   
     axis 0 0 0   XYZ
    dof rx ry rz
    limits (-20.0 45.0)
           (-30.0 30.0)
           (-30.0 30.0)
  end
  begin
     id 15 
     name upperneck
     direction 0.00339187 0.976776 -0.214238   
     length 1.48018   
     axis 0 0 0   XYZ
    dof rx ry rz
    limits (-20.0 45.0)
           (-30.0 30.0)
           (-30.0 30.0)
  end
  begin
     id 16
     name head
     direction -0.00263506 0.996603 -0.0823096  
     length 1.4976  
     axis 0 0 0   XYZ
    dof rx ry rz
    limits (-20.0 45.0)
           (-30.0 30.0)
           (-30.0 30.0)
  end
  begin
     id 17 
     name lclavicle
     direction 0.894044 0.44508 -0.0508781  
     length 3.03024  
     axis 0 0 0   XYZ
    dof ry rz
    limits (-20.0 10.0)
           (0.0 20.0)
  end
  begin
     id 18 
     name lhumerus
     direction 1 -4.48961e-011 -2.39475e-018   
     length 4.4661   
     axis 180 -30 -90   XYZ
    dof rx ry rz
    limits (-60.0 90.0)
           (-90.0 90.0)
           (-90.0 90.0)
  end
  begin
     id 19
     name lradius
     direction 1 -4.48961e-011 9.29328e-028   
     length 3.41414   
     axis 180 -30 -90   XYZ
    dof rx
    limits (-10.0 170.0)
  end
  begin
     id 20
     name lwrist
     direction 1 -4.48985e-011 1.53461e-026   
     length 1.70707   
     axis -1.09697e-014 90 90   XYZ
    dof ry
    limits (-180.0 0.0)
 end
  begin
     id 21 
     name lhand
     direction 1 -4.48966e-011 3.06923e-026   
     length 0.328298   
     axis -1.95843e-014 90 90   XYZ
    dof rx rz
    limits (-90.0 90.0)
           (-45.0 45.0)
  end
  begin
     id 22 
     name lfingers
     direction 1 -4.48893e-011 6.13845e-026   
     length 0.264682   
     axis -3.91686e-014 90 90   XYZ
    dof rx
    limits (0.0 90.0)
  end
  begin
     id 23
     name lthumb
     direction 0.707107 -6.34876e-011 0.707107   
     length 0.380032   
     axis -90 45 2.85299e-015   XYZ
    dof rx rz
    limits (-45.0 45.0)
           (-45.0 45.0)
  end
  begin
     id 24 
     name rclavicle
     direction -0.936955 0.347862 -0.0332887   
     length 3.26927  
     axis 0 0 0   XYZ 
    dof ry rz
    limits (-10.0 20.0)
           (-20.0 0.0)
  end
  begin
     id 25 
     name rhumerus
     direction -1 -4.4896e-011 1.78637e-018  
     length 4.40431   
     axis 180 30 90   XYZ
    dof rx ry rz
    limits (-90.0 60.0)
           (-90.0 90.0)
           (-90.0 90.0)
  end
  begin
     id 26 
     name rradius
     direction -1 -4.48955e-011 9.34036e-027   
     length 3.04688   
     axis 180 30 90   XYZ
    dof rx
    limits (-10.0 170.0)
  end
  begin
     id 27 
     name rwrist
     direction -1 -4.49011e-011 1.53461e-026   
     length 1.52344   
     axis -1.09697e-014 -90 -90   XYZ
    dof ry
    limits (-180.0 0.0)
  end
  begin
     id 28
     name rhand
     direction -1 -4.48834e-011 3.06923e-026   
     length 0.500489   
     axis -1.95843e-014 -90 -90   XYZ
    dof rx rz
    limits (-90.0 90.0)
           (-45.0 45.0)
  end
  begin
     id 29
     name rfingers
     direction -1 -4.48967e-011 6.13845e-026   
     length 0.403507   
     axis -3.91686e-014 -90 -90   XYZ
    dof rx
    limits (0.0 90.0)
  end
  begin
     id 30
     name rthumb
     direction -0.707107 -6.34826e-011 0.707107   
     length 0.579358   
     axis -90 -45 -2.85299e-015   XYZ
    dof rx rz
    limits (-45.0 45.0)
           (-45.0 45.0)
  end
:hierarchy
  begin
    root lhipjoint rhipjoint lowerback
    lhipjoint lfemur
    lfemur ltibia
    ltibia lfoot
    lfoot ltoes
    rhipjoint rfemur
    rfemur rtibia
    rtibia rfoot
    rfoot rtoes
    lowerback upperback
    upperback thorax
    thorax lowerneck lclavicle rclavicle
    lowerneck upperneck
    upperneck head
    lclavicle lhumerus
    lhumerus lradius
    lradius lwrist
    lwrist lhand lthumb
    lhand lfingers
    rclavicle rhumerus
    rhumerus rradius
    rradius rwrist
    rwrist rhand rthumb
    rhand rfingers
  end

#!OML:ASF H:\IndianDance\Patient Classification 1\Patient 1\Session 1\dancer.ASF
:FULLY-SPECIFIED
:DEGREES
1654
root -3.68735 14.4431 2.62929 -175.269 2.73769 -191.658
lowerback 6.72471 8.43502 5.08572
upperback -8.55233 12.4025 -7.10098
thorax -10.3624 5.67337 -12.399
lowerneck -18.4911 4.29156 -1.91727
upperneck 24.9604 4.61703 5.48599
head 10.9241 2.39015 2.943
rclavicle -2.14563e-014 2.78299e-015
rhumerus -16.1722 71.8928 -59.4148
rradius 89.0503
rwrist 19.2558
rhand -42.9763 31.1118
rfingers 7.12502
rthumb -15.8356 1.73941
lclavicle -2.14563e-014 2.78299e-015
lhumerus -0.161936 -31.1536 9.71081
lradius 92.4883
lwrist 53.5603
lhand -10.4865 52.2301
lfingers 7.12502
lthumb 15.5152 81.6276
rfemur -36.0776 -22.2332 13.2224
rtibia 82.0244
rfoot -17.1465 -8.78816
rtoes 7.66502
lfemur -28.4527 16.3683 -32.6461
ltibia 49.0879
lfoot -21.8607 5.38967
ltoes 0.883175
1655
root -3.72334 14.4261 2.59881 -175.678 3.15427 -191.77
lowerback 7.06446 8.30701 5.31668
upperback -8.33997 12.21 -6.91913
thorax -10.3595 5.54418 -12.3433
lowerneck -18.7089 3.68023 -2.39235
upperneck 25.2307 3.9025 5.37992
head 11.0913 1.99485 2.89829
rclavicle 1.23439e-013 2.33289e-014
rhumerus -13.4783 71.6653 -55.2721
rradius 87.1256
rwrist 21.552
rhand -44.9157 34.0736
rfingers 7.12502
rthumb -17.7025 4.85939
lclavicle 1.23439e-013 2.33289e-014
lhumerus -1.1401 -33.6359 10.9139
lradius 94.3044
lwrist 51.6936
lhand -11.4994 50.9438
lfingers 7.12502
lthumb 14.5393 80.4143
rfemur -37.5915 -21.2776 12.1108
rtibia 81.1451
rfoot -18.6903 -10.5638
rtoes 8.96122
lfemur -27.9288 16.5379 -32.7937
ltibia 49.1617
lfoot -21.9929 6.07061
ltoes -0.261292
1656
root -3.7562 14.4148 2.56598 -176 3.60042 -191.791
lowerback 7.30921 8.1807 5.57112
upperback -8.15219 12.0274 -6.70613
thorax -10.3285 5.42353 -12.248
lowerneck -18.889 3.0691 -2.85643
upperneck 25.4195 3.19788 5.251
head 11.2251 1.60463 2.83854
rclavicle 1.26762e-013 -3.70733e-014
rhumerus -10.851 71.1673 -51.229
rradius 85.2062
rwrist 22.9893
rhand -46.5144 36.9945
rfingers 7.12502
rthumb -19.2404 7.92626
lclavicle 1.26762e-013 -3.70733e-014
lhumerus -2.15208 -36.0766 12.2237
lradius 96.0744
lwrist 49.6694
lhand -12.7655 49.619
lfingers 7.12502
lthumb 13.3192 79.1734
rfemur -39.0513 -20.2051 11.131
rtibia 79.6559
rfoot -20.0743 -12.1384
rtoes 10.1167
lfemur -27.4835 16.719 -32.8469
ltibia 49.2162
lfoot -22.1394 6.61521
ltoes -0.808349
1657
root -3.78534 14.4354 2.52906 -176.251 4.05222 -191.74
lowerback 7.47156 8.05064 5.83262
upperback -7.97737 11.8436 -6.46711
thorax -10.268 5.30718 -12.111
lowerneck -19.0282 2.45757 -3.30306
upperneck 25.5094 2.49995 5.10527
head 11.3174 1.2204 2.76453
rclavicle 1.13904e-013 1.19271e-015
rhumerus -8.35461 70.3568 -47.3643
rradius 83.322
rwrist 23.7351
rhand -47.7934 39.8572
rfingers 7.12502
rthumb -20.4698 10.9162
lclavicle 1.13904e-013 1.19271e-015
lhumerus -3.18228 -38.462 13.6229
lradius 97.7741
lwrist 47.4287
lhand -14.3373 48.3912
lfingers 7.12502
lthumb 11.8039 78.0385
rfemur -40.2405 -19.0714 10.2484
rtibia 77.4433
rfoot -21.2513 -13.6096
rtoes 10.6554
lfemur -26.9831 16.9071 -32.8177
ltibia 49.1354
lfoot -22.3244 6.97695
ltoes -0.589064
1658
root -3.81152 14.435 2.49239 -176.452 4.48345 -191.637
lowerback 7.57133 7.90516 6.0892
upperback -7.80367 11.6398 -6.21096
thorax -10.1809 5.1862 -11.9379
lowerneck -19.1335 1.85078 -3.73117
upperneck 25.4928 1.81111 4.96272
head 11.3653 0.846701 2.68475
rclavicle 3.83157e-014 -3.65764e-014
rhumerus -6.03923 69.1966 -43.7691
rradius 81.4676
rwrist 24.0247
rhand -48.8171 42.656
rfingers 7.12502
rthumb -21.4534 13.8239
lclavicle 3.83157e-014 -3.65764e-014
lhumerus -4.20431 -40.7714 15.07
lradius 99.3691
lwrist 44.9461
lhand -16.0347 47.145
lfingers 7.12502
lthumb 10.1667 76.8794
rfemur -41.4227 -17.9132 9.42585
rtibia 74.9539
rfoot -21.6326 -14.9624
rtoes 11.734
lfemur -26.6431 17.0786 -32.7272
ltibia 49.2009
lfoot -22.6019 7.14642
ltoes 0.478736
1659
root -3.83395 14.4366 2.45439 -176.625 4.87113 -191.502
lowerback 7.62591 7.73408 6.31849
upperback -7.62165 11.3985 -5.93762
thorax -10.0746 5.0527 -11.7182
lowerneck -19.2009 1.249 -4.14784
upperneck 25.3629 1.1324 4.83084
head 11.3648 0.484622 2.60417
rclavicle 2.31087e-014 -1.98785e-015
rhumerus -3.90404 67.6797 -40.4611
rradius 79.6595
rwrist 24.0175
rhand -49.6236 45.3418
rfingers 7.12502
rthumb -22.2278 16.5999
lclavicle 2.31087e-014 -1.98785e-015
lhumerus -5.22181 -42.9992 16.5323
lradius 100.864
lwrist 42.211
lhand -17.7892 45.8557
lfingers 7.12502
lthumb 8.47377 75.6656
rfemur -42.4194 -16.8234 8.63394
rtibia 72.2175
rfoot -21.7196 -15.975
rtoes 11.9326
lfemur -26.3133 17.2187 -32.5923
ltibia 49.2472
lfoot -22.8952 7.2212
ltoes 1.88283
1660
root -3.85174 14.4138 2.41565 -176.789 5.20601 -191.364
lowerback 7.64654 7.53327 6.4969
upperback -7.42012 11.11 -5.65767
thorax -9.94663 4.90353 -11.4515
lowerneck -19.2333 0.658115 -4.53377
upperneck 25.1144 0.467371 4.70758
head 11.3142 0.137705 2.52042
rclavicle 8.94531e-015 -3.22031e-014
rhumerus -1.9457 65.7999 -37.4724
rradius 77.8939
rwrist 23.8584
rhand -50.2618 47.8916
rfingers 7.12502
rthumb -22.8403 19.224
lclavicle 8.94531e-015 -3.22031e-014
lhumerus -6.20541 -45.1312 17.964
lradius 102.231
lwrist 39.1971
lhand -19.5393 44.5185
lfingers 7.12502
lthumb 6.78453 74.3898
rfemur -43.4021 -15.8793 7.85844
rtibia 69.6481
rfoot -21.5556 -16.6012
rtoes 11.7773
lfemur -26.1035 17.3194 -32.4341
ltibia 49.4733
lfoot -23.2555 7.24554
ltoes 3.46524
1661
root -3.8659 14.4119 2.37504 -176.953 5.48765 -191.232
lowerback 7.64735 7.29865 6.61822
upperback -7.20408 10.7692 -5.37585
thorax -9.81135 4.73501 -11.1432
lowerneck -19.2326 0.078134 -4.90419
upperneck 24.7586 -0.185231 4.61089
head 11.2182 -0.194525 2.44384
rclavicle 1.14898e-013 -7.15625e-015
rhumerus -0.159931 63.5833 -34.8236
rradius 76.1722
rwrist 23.6339
rhand -50.8292 50.2939
rfingers 7.12502
rthumb -23.3848 21.6946
lclavicle 1.14898e-013 -7.15625e-015
lhumerus -7.16234 -47.1673 19.3319
lradius 103.478
lwrist 35.9402
lhand -21.2727 43.1501
lfingers 7.12502
lthumb 5.11102 73.0685
rfemur -44.1851 -15.115 7.11053
rtibia 67.1942
rfoot -21.264 -16.7027
rtoes 11.2831
lfemur -25.8053 17.3786 -32.2717
ltibia 49.6191
lfoot -23.6147 7.28597
ltoes 4.96224
1662
root -3.87586 14.408 2.33335 -177.118 5.72411 -191.102
lowerback 7.63537 7.0313 6.68643
upperback -6.97819 10.3789 -5.09338
thorax -9.67533 4.54735 -10.7994
lowerneck -19.2013 -0.47772 -5.21175
upperneck 24.3116 -0.812787 4.50383
head 11.0829 -0.507498 2.35587
rclavicle 6.31141e-014 6.36111e-015
rhumerus 1.46463 61.0679 -32.528
rradius 74.495
rwrist 23.3457
rhand -51.3256 52.5216
rfingers 7.12502
rthumb -23.8609 23.9837
lclavicle 6.31141e-014 6.36111e-015
lhumerus -8.08394 -49.1073 20.6066
lradius 104.613
lwrist 32.5149
lhand -22.9828 41.7955
lfingers 7.12502
lthumb 3.45967 71.7472
rfemur -44.9661 -14.5376 6.41941
rtibia 65.1524
rfoot -20.984 -16.2957
rtoes 10.0362
lfemur -25.5045 17.3967 -32.096
ltibia 49.7773
lfoot -23.9125 7.43887
ltoes 5.79937
1663
root -3.88184 14.4029 2.29067 -177.287 5.92519 -190.981
lowerback 7.61531 6.73366 6.69963
upperback -6.7452 9.94301 -4.81385
thorax -9.54179 4.34191 -10.424
lowerneck -19.1182 -1.00525 -5.46789
upperneck 23.7625 -1.41389 4.41121
head 10.9002 -0.799348 2.26845
rclavicle -1.48492e-013 -5.56597e-015
rhumerus 2.96588 58.2941 -30.5906
rradius 72.8469
rwrist 22.9755
rhand -51.7625 54.5411
rfingers 7.12502
rthumb -24.2798 26.0586
lclavicle -1.48492e-013 -5.56597e-015
lhumerus -8.96498 -50.9501 21.7665
lradius 105.661
lwrist 29.0163
lhand -24.6784 40.4964
lfingers 7.12502
lthumb 1.82216 70.4684
rfemur -45.7645 -14.1418 5.79319
rtibia 63.547
rfoot -20.8693 -15.4352
rtoes 8.1148
lfemur -25.1591 17.3809 -31.9141
ltibia 49.858
lfoot -24.1014 7.7077
ltoes 5.95688
1664
root -3.88412 14.3979 2.24705 -177.461 6.10075 -190.873
lowerback 7.6028 6.41091 6.65629
upperback -6.51941 9.47098 -4.54127
thorax -9.4319 4.1215 -10.0259
lowerneck -18.9674 -1.50108 -5.67212
upperneck 23.125 -1.98833 4.33689
head 10.6725 -1.07132 2.18398
rclavicle -1.28216e-013 3.57812e-014
rhumerus 4.34041 55.3205 -29.0147
rradius 71.2336
rwrist 22.4968
rhand -52.1591 56.257
rfingers 7.12502
rthumb -24.66 27.8259
lclavicle -1.28216e-013 3.57812e-014
lhumerus -9.80621 -52.7071 22.8122
lradius 106.638
lwrist 25.5522
lhand -26.3833 39.3309
lfingers 7.12502
lthumb 0.175588 69.3106
rfemur -46.6026 -13.9015 5.23158
rtibia 62.3934
rfoot -21.0087 -14.2448
rtoes 5.73521
lfemur -24.7957 17.3309 -31.7317
ltibia 49.925
lfoot -24.2592 8.02343
ltoes 5.85507
